<svg xmlns="http://www.w3.org/2000/svg" viewBox="0 0 415.75 84.37" fill-rule="evenodd" fill="#ab1a1f"><path d="M45.94 84.37h-.3c-1.07-.74.08-1.7.45-2.25l22.75-32.7s-12.56-1.67-13.44-6.18c-.3-1.5.45-3.75.45-3.75h-53S0 39.38 0 38.73s2-.6 2.93-.6l45.1.3 8.56-.06s2.7-2.22 4.05-3.1c6.02-3.87 13.6-5.44 22.07-6.16C89.06 20.83 95.1 11.5 101.03 3c.74-1.06 1.76-3.1 3.15-3 .03 1.48-1.15 2.77-1.95 3.9L85.7 27.3c-.33.48-1.4 1.83-1.4 1.83s12.94.67 14.75 5.83c.58 1.64-.3 3.15-.3 3.15h49.55c.73 0 2.32-.47 2.55.75-.54 1-1.86.6-2.7.6-16.6.1-33.63-.07-50 0-6.1 6.42-15.67 9.5-27.7 10l-24.54 34.9m37.38-53.3c-.52.58-1.03 1.18-1.35 1.95 4.22.25 9.06.62 8.55 5.1h3.9c1.16-6.02-5.7-6.6-11.1-7.05m-21.96 7.05h4.24c2.6-3.5 13.7-5.55 14.72-5.1l.9-1.8c-2.92-1.16-13.03 1.87-18.02 5.4l-1.84 1.5zm-.7 1.36c-.6.44-.92 1.55-.9 2.25.1 3.93 6.52 5.23 10.5 5.4.63-.57 1.14-1.27 1.5-2.1-3.76-.28-8.88-1.3-7.2-5.56h-3.9zm28.98 0c-3.73 3.47-9.18 5.23-16.06 5.56-.36.57-1.2 2.1-1.2 2.1.3.54 17.22-1.5 21.17-7.66h-3.9z"/><path d="M93.38 9.46c.14 1.64-1.28 2.87-2.1 4.05l-2.55 3.75c-3.98 5.68-7.04 11.94-17.56 10.96-4.9-.46-8.04-3.68-11.66-6.22-2.67-1.88-5.67-3.5-6.96-5.8 3.74-1.46 6.73 1.52 9.46 2.55 5.52-1.2 10.98-2.45 17.12-3.15 1.94-.22 6.16-.45 6.16-.45s2.77-2.97 3.9-3.9a8.09 8.09 0 0 1 4.18-1.8M65.3 20.42s6 4.37 10.36 3.6c3.48-.6 6.5-4.68 7.35-6.6-6.12.78-12.47 1.32-17.7 3m36.63-5.4c5.13.62 9.46 1.27 14.1 2.55 1.37.38 4.2 1.35 4.2 1.35l6.46-1.95c2.14-.62 4.28-1.66 6.75-1.05-2.45 1.77-5.54 2.63-8.55 3.75l-9 3.3c-6.14 2.28-12.1 5.52-19.52 5.1-2.23-.12-5.24-.7-5.56-2.4-.27-1.47 1.3-3 2.25-4.35 1.62-2.33 3.66-5.54 5.26-7.95.67-1 1.98-3.74 3.45-3.76 2.85-.04.94 3.54.16 5.4m-.9 2.55s-2.47 4.48-2.1 5.7c.66 2.2 6.58.05 8.26-.45 3.2-.95 5.98-1.73 7.96-2.55-4.34-1.27-8.82-2.4-14.12-2.7m37.53 1.66c-1.88 2.78-7.55 4.36-9 4.96 4.4 2.1 4.2 10.2 4.2 10.2s10.3-.58 12.6 1.96c-2.7.8-5.8.45-9 .45h-9.46c-6.68 0-12.98.52-18.47.15-2.2-.15-5.6-.9-6-2.55-.74-3.16 4.03-4.6 6.6-5.56l17.72-6.6c3.08-1.13 6.04-2.74 9.3-3.3.48-.1 1.1-.26 1.5.28m-13.36 6.9c-2.1.98-3.72 1.57-6.6 2.85-1 .45-5.7 2-5.56 3.45.18 1.68 5.34 1.24 7.36 1.35l8.26.45c.1-3.95-1.52-6.18-3.45-8.1M12.3 36.5c3.46-3.03 14.7-2.1 14.7-2.1s2.76-1.77 4.2-2.85c4.57-3.43 9.16-5.23 13.8-7.2-.62-.85-4.88-4.86-1.5-5.4.33-.05 1.2.1 1.65.3 2.7 1.16 4.98 3.14 8.13 5.44 1.58 1.16 6.8 4.36 6.88 6.57.14 3.78-7.86 5.5-11.56 5.7-5.6.32-12.13 0-18.47 0-6.27-.02-12.55.33-17.85-.46M46.7 26.27c-5.02 2.2-9.78 4.63-13.8 7.8 4.44-.3 10.1-.27 14.4-.6 1.57-.12 4.5 0 4.05-1.65s-2.9-3.9-4.65-5.56M4.8 62.3c.9-2.04 3.97-2.85 6.45-3.9l7.36-3.15c-2.06-3.07-1.22-9.22.6-11.86-4.15-.56-9.68.27-12.3-1.8.95-1.17 2.78-.9 4.2-.9h35.43c1.44.05 3.6.83 3.9 2.25.55 2.54-2.93 4.5-5.82 5.68-1.95.8-23.5 8.5-33.5 12.18-1.96.72-3.96 2.08-6.3 1.5m31.83-14.56c1-.4 3.68-1.33 3.45-2.55-.26-1.43-3.64-1-4.95-1.05l-10.66-.6c-1.54 2.1-1.8 6.78-.45 9.3 4.22-1.56 8.33-3.33 12.6-5.1m108.1-6.6c-1.56 1.48-3.98 1.68-6.6 1.8l-7.95.3-3.45 3.45c-3.58 3.5-12.16 8.56-12.16 8.56s5.4 3.52 4.5 6.3-5.97-1.2-6.6-1.65l-11.56-8.4c-1.67-1.18-5.04-2.56-5.1-4.8-.1-3.8 7.92-5.74 11.1-6 6.23-.5 12.9 0 19.22 0h9.6c3.05.01 6.15-.35 9 .46M110.35 44c-1.6.12-4.95.8-4.95 2.4 0 .97 5.4 5.5 6.46 6.6 3.92-2.3 12.4-9 12.16-9.6-4.07.48-9.48.3-13.67.6m-63.8 24.16c-7.96-.74-14.77-2.64-20.42-5.7-5.8 1.07-10.6 4.7-17.1 4.05 1.15-1.6 3.32-2.04 5.1-2.7l28.52-10.5s8.25-3.27 12.9-3.3c2.77-.02 6.6.62 6.9 2.85.28 1.98-2.65 5.18-3.76 6.75L50 71.9c-.87 1.24-3.2 5.37-5.4 4.65-1.87-.6-.75-3.12-.15-4.35.77-1.6 1.48-2.7 2.1-4.05m-1.2-11.7C40.9 57.82 36.55 59 32.6 60.5c4.62 2.04 9.93 3.38 15.76 4.2 1.23-3.1 5.04-7.93 3.9-9.16s-4.68.22-6.9.9M107.8 66.5c-1.68 1.15-4.28.5-5.86-.15-2.1-.88-4.2-2.67-6-3.45-7.6 2.3-15.27 4.07-24.17 5.1-1.2.14-3.75.3-3.75.3s-3.84 4.5-5.1 5.7c-1.8 1.7-3.52 3.02-6.3 2.55.45-2.2 2.08-3.86 3.3-5.7 2.35-3.52 9.46-14.67 10.8-16.07 3.8-3.94 12.5-6.34 18.62-3 1.62.88 11.36 8.25 14.56 10.66 1.52 1.14 3.63 2.1 3.9 4.05m-30.2-9.9c-1.8 1.33-6.77 7.58-6.6 8.1 7.5-.82 14.6-2.02 20.87-4.05-4.1-1.75-9.15-7.85-14.27-4.06m174.07.2V25.27h-9.12l-.02 32.15c0 3.84-1.52 3.13-2.53 1.73L217.26 27.6c-.28-.38-1.16-1.22-1.54-1.5-3.4-2.38-8.62-1.9-11.77.34-2.72 1.95-3.37 5.62-3.37 7.33v18.36l9.14 15.14.02-29.64c0-3.4 1.57-2.7 2.3-1.67l21.48 29.77c.9 1.26 2.2 3.22 4.48 4.34 4 1.97 13.64.72 13.64-8.9l.02-4.4zm-75.4-32.02c-5.27 0-7.55 3.1-10.95 9.02l-21.06 36.47h10.14l18.26-31.63c1.55-2.68 2.24-3.2 3.57-3.2s2.02.5 3.58 3.2l9.8 16.96h-20.3l-4.03 8.36h29.16l3.65 6.3h10.13L187.18 33.8c-3.4-5.84-5.63-9.02-10.9-9.02zm161.32 4.66c1.78-1.63 3.97-3.16 5.88-4.17h-51.53v8.53h18.38v36.47h9.24V33.8h14.3c.77-1.23 2.07-2.83 3.73-4.35zm57.58 31.36c-2.37-1.22-2.53-6.14-2.53-10.5V25.26h-9.04V54.5c0 6.2.02 10.33 3.16 12.9 3.44 2.82 9.26 2.87 15.6 2.85l13.26-.01.1-8.33H404.7c-3.66.01-7.16.1-9.53-1.1zM275.86 24.78c-5.27 0-7.55 3.1-10.95 9.02l-10.67 18.54v11.3c0 4.03-4 6.63-4 6.63H254l18.26-31.63c1.55-2.68 2.24-3.2 3.57-3.2s2.02.5 3.58 3.2l9.8 16.96h-20.3l-4.03 8.36h29.16l3.65 6.3h10.13L286.77 33.8c-3.4-5.84-5.64-9.02-10.9-9.02zm131.24 5.44h1.1V25.7h1.6v-.92h-4.33v.92h1.62zm7-5.44l-.97 3.7-1-3.7h-1.65v5.44h1.02v-4.3l1.08 4.3h1.06l1.08-4.3v4.3h1.02v-5.44zm-57.4-.08c-13.53 0-24.5 10.3-24.5 23s10.97 23 24.5 23 24.5-10.3 24.5-23-10.97-23-24.5-23zm0 38.23c-8.95 0-16.2-6.8-16.2-15.22s7.26-15.22 16.2-15.22 16.2 6.8 16.2 15.22-7.25 15.22-16.2 15.22z"/></svg>